<?xml version="1.0" encoding="UTF-8"?>
<!DOCTYPE svg PUBLIC "-//W3C//DTD SVG 1.1//EN" "http://www.w3.org/Graphics/SVG/1.1/DTD/svg11.dtd">
<!-- Creator: CorelDRAW -->
<svg xmlns="http://www.w3.org/2000/svg" xml:space="preserve" width="49.5855mm" height="54.6041mm" version="1.1" style="shape-rendering:geometricPrecision; text-rendering:geometricPrecision; image-rendering:optimizeQuality; fill-rule:evenodd; clip-rule:evenodd"
viewBox="0 0 1342.52 1478.39"
 xmlns:xlink="http://www.w3.org/1999/xlink"
 xmlns:xodm="http://www.corel.com/coreldraw/odm/2003">
 <defs>
  <style type="text/css">
   <![CDATA[
    .fil0 {fill:white}
   ]]>
  </style>
 </defs>
 <g id="Слой_x0020_1">
  <metadata id="CorelCorpID_0Corel-Layer"/>
  <path class="fil0" d="M472.37 836.47l-172.3 175.11c-19.09,-7.91 -40.02,-12.28 -61.98,-12.28 -6.6,0 -13.12,0.4 -19.51,1.18 -13.36,1.61 -26.21,4.83 -38.36,9.48 -43.86,-75.47 -69,-163.18 -69,-256.76 0,-60.86 10.65,-119.23 30.14,-173.37 15.36,4.83 31.7,7.44 48.66,7.44 31.12,0 60.2,-8.78 84.88,-23.99l190.48 156.81c-5.07,15.53 -7.82,32.11 -7.82,49.34 0,23.96 5.32,46.68 14.82,67.05zm-90.25 250.56l169.66 -172.5c19.72,8.78 41.55,13.67 64.54,13.67 87.69,0 158.78,-71.08 158.78,-158.78 0,-23.92 -5.3,-46.59 -14.77,-66.93l263.39 -267.79c41.48,52.11 73,112.5 91.7,178.29 -24.72,10.85 -46.22,27.69 -62.65,48.68 -21.52,27.5 -34.34,62.13 -34.34,99.76 0,18.21 3,35.72 8.54,52.06 14.13,41.67 44.75,75.72 84.08,94.39 -37.6,118.73 -117.32,218.72 -221.63,282.42 -27.82,-22.51 -63.25,-35.99 -101.82,-35.99 -71.5,0 -132.18,46.31 -153.69,110.57 -3.62,0.08 -7.24,0.14 -10.88,0.14 -82.9,0 -161.19,-19.73 -230.44,-54.72 4.89,-15.45 7.53,-31.89 7.53,-48.95 0,-26.66 -6.44,-51.82 -17.85,-74l-0.07 -0.13 -0.09 -0.18zm-382.13 -333.84c0,121.79 34.95,235.41 95.35,331.39 -12.31,22.85 -19.3,48.98 -19.3,76.76 0,89.49 72.55,162.04 162.04,162.04 31.16,0 60.25,-8.8 84.96,-24.04 88.99,49 191.23,76.89 300,76.89 4.64,0 9.27,-0.07 13.89,-0.17 23.77,59.94 82.27,102.33 150.68,102.33 89.5,0 162.04,-72.55 162.04,-162.04 0,-10.5 -1.01,-20.76 -2.92,-30.71 134.24,-81.77 235.11,-212.89 277.45,-368.15 68.26,-19.08 118.33,-81.73 118.33,-156.07 0,-72.68 -47.84,-134.18 -113.75,-154.73 -22.67,-94.04 -66.66,-179.77 -126.59,-251.78l-0.06 -0.08c-23.73,-28.51 -49.95,-54.88 -78.34,-78.74l-0.83 0.84 -78.62 79.9 -263.28 267.56c-19.77,-8.84 -41.67,-13.76 -64.73,-13.76 -29.78,0 -57.65,8.21 -81.47,22.47l-190.91 -157.17c5.26,-15.96 8.11,-33.01 8.11,-50.73 0,-32.71 -9.71,-63.16 -26.38,-88.63 63.88,-45.68 138.71,-77.05 219.8,-89.38 28.43,40.84 75.73,67.57 129.26,67.57 70.94,0 130.92,-46.94 150.57,-111.46 4.43,-14.53 6.82,-29.95 6.82,-45.93 0,-86.92 -70.47,-157.39 -157.39,-157.39 -80.68,0 -147.17,60.72 -156.31,138.94 -107.49,18.18 -205.6,63.9 -286.87,129.62 -13.26,-3.51 -27.18,-5.39 -41.55,-5.39 -89.49,0 -162.04,72.55 -162.04,162.04 0,30.01 8.17,58.11 22.39,82.22 -32.41,75.4 -50.37,158.48 -50.37,245.76z"/>
 </g>
</svg>
